<svg xmlns="http://www.w3.org/2000/svg" xmlns:xlink="http://www.w3.org/1999/xlink" width="1em" height="1em" preserveAspectRatio="xMidYMid meet" viewBox="0 0 24 24" style="-ms-transform: rotate(360deg); -webkit-transform: rotate(360deg); transform: rotate(360deg);"><path fill="url(#grad1)" d="M12 2a2 2 0 0 1 2 2c0 .74-.4 1.39-1 1.73V7h1a7 7 0 0 1 7 7h1a1 1 0 0 1 1 1v3a1 1 0 0 1-1 1h-1v1a2 2 0 0 1-2 2H5a2 2 0 0 1-2-2v-1H2a1 1 0 0 1-1-1v-3a1 1 0 0 1 1-1h1a7 7 0 0 1 7-7h1V5.73c-.6-.34-1-.99-1-1.73a2 2 0 0 1 2-2M7.5 13A2.5 2.5 0 0 0 5 15.5A2.5 2.5 0 0 0 7.5 18a2.5 2.5 0 0 0 2.5-2.5A2.5 2.5 0 0 0 7.5 13m9 0a2.5 2.5 0 0 0-2.5 2.5a2.5 2.5 0 0 0 2.5 2.5a2.5 2.5 0 0 0 2.5-2.5a2.5 2.5 0 0 0-2.5-2.5Z"/>
<defs>
    <linearGradient id="grad1" x1="0%" y1="0%" x2="100%" y2="0%">
      <stop offset="0%" style="stop-color:#283048;stop-opacity:1" />
      <stop offset="100%" style="stop-color:#859398;stop-opacity:1" />
    </linearGradient>
  </defs>

</svg>